<?xml version="1.0" encoding="UTF-8"?>
<svg xmlns="http://www.w3.org/2000/svg" xmlns:xlink="http://www.w3.org/1999/xlink" width="35px" height="35px" viewBox="0 0 35 35" version="1.1">
<g id="surface1">
<path style=" stroke:none;fill-rule:nonzero;fill:rgb(2.745098%,2.745098%,3.529412%);fill-opacity:1;" d="M 11.273438 13.144531 C 11.320312 13.144531 11.367188 13.144531 11.414062 13.144531 C 11.566406 13.144531 11.71875 13.144531 11.867188 13.144531 C 11.976562 13.148438 12.082031 13.148438 12.1875 13.148438 C 12.464844 13.148438 12.742188 13.148438 13.019531 13.148438 C 13.304688 13.152344 13.589844 13.152344 13.871094 13.152344 C 14.429688 13.15625 14.984375 13.15625 15.539062 13.160156 C 15.542969 13.46875 15.53125 13.746094 15.464844 14.046875 C 15.449219 14.117188 15.433594 14.1875 15.417969 14.261719 C 15.394531 14.371094 15.394531 14.371094 15.371094 14.480469 C 15.351562 14.554688 15.335938 14.628906 15.320312 14.707031 C 15.199219 15.25 15.199219 15.25 15.121094 15.328125 C 15 15.339844 14.878906 15.339844 14.757812 15.34375 C 14.679688 15.34375 14.601562 15.34375 14.523438 15.347656 C 14.4375 15.347656 14.351562 15.347656 14.265625 15.351562 C 14.136719 15.351562 14.136719 15.351562 14.003906 15.355469 C 13.726562 15.359375 13.449219 15.363281 13.171875 15.363281 C 12.808594 15.371094 12.445312 15.375 12.082031 15.378906 C 11.957031 15.382812 11.957031 15.382812 11.828125 15.382812 C 11.710938 15.386719 11.710938 15.386719 11.589844 15.386719 C 11.488281 15.386719 11.488281 15.386719 11.382812 15.390625 C 11.214844 15.398438 11.078125 15.414062 10.921875 15.46875 C 10.832031 15.628906 10.832031 15.628906 10.78125 15.820312 C 10.761719 15.882812 10.742188 15.941406 10.71875 16.003906 C 10.617188 16.375 10.53125 16.695312 10.570312 17.078125 C 10.691406 17.308594 10.691406 17.308594 10.921875 17.359375 C 11.109375 17.367188 11.296875 17.375 11.484375 17.378906 C 11.597656 17.378906 11.714844 17.382812 11.828125 17.382812 C 12.007812 17.386719 12.1875 17.390625 12.367188 17.394531 C 12.542969 17.394531 12.714844 17.398438 12.890625 17.402344 C 12.941406 17.402344 12.996094 17.40625 13.050781 17.40625 C 13.628906 17.417969 14.210938 17.484375 14.628906 17.921875 C 15.101562 18.625 15.03125 19.4375 14.875 20.238281 C 14.851562 20.347656 14.851562 20.347656 14.828125 20.457031 C 14.8125 20.535156 14.796875 20.609375 14.777344 20.691406 C 14.523438 21.890625 14.191406 23.089844 13.117188 23.804688 C 12.875 23.898438 12.636719 23.886719 12.378906 23.886719 C 12.292969 23.886719 12.292969 23.886719 12.203125 23.886719 C 12.015625 23.886719 11.824219 23.886719 11.636719 23.882812 C 11.503906 23.882812 11.375 23.882812 11.242188 23.882812 C 10.894531 23.882812 10.550781 23.882812 10.203125 23.878906 C 9.851562 23.878906 9.5 23.878906 9.148438 23.875 C 8.453125 23.875 7.761719 23.871094 7.070312 23.871094 C 7.007812 23.585938 7.007812 23.390625 7.066406 23.105469 C 7.082031 23.027344 7.097656 22.949219 7.113281 22.871094 C 7.132812 22.789062 7.148438 22.710938 7.167969 22.628906 C 7.183594 22.546875 7.199219 22.464844 7.214844 22.382812 C 7.339844 21.78125 7.339844 21.78125 7.421875 21.699219 C 7.5625 21.691406 7.703125 21.691406 7.847656 21.691406 C 7.984375 21.691406 7.984375 21.691406 8.125 21.691406 C 8.195312 21.691406 8.195312 21.691406 8.273438 21.691406 C 8.480469 21.691406 8.683594 21.6875 8.890625 21.6875 C 9.273438 21.683594 9.660156 21.683594 10.042969 21.683594 C 10.308594 21.683594 10.578125 21.679688 10.84375 21.679688 C 10.945312 21.675781 11.046875 21.675781 11.148438 21.679688 C 11.292969 21.679688 11.433594 21.675781 11.578125 21.675781 C 11.699219 21.675781 11.699219 21.675781 11.824219 21.675781 C 12.105469 21.617188 12.210938 21.503906 12.390625 21.28125 C 12.476562 21.046875 12.476562 21.046875 12.515625 20.792969 C 12.535156 20.710938 12.550781 20.628906 12.566406 20.542969 C 12.597656 20.316406 12.605469 20.105469 12.601562 19.878906 C 12.300781 19.796875 12.011719 19.796875 11.703125 19.796875 C 11.578125 19.792969 11.453125 19.792969 11.332031 19.789062 C 11.136719 19.785156 10.941406 19.785156 10.75 19.78125 C 10.558594 19.78125 10.371094 19.777344 10.183594 19.773438 C 10.128906 19.773438 10.070312 19.773438 10.011719 19.773438 C 9.511719 19.761719 9.085938 19.652344 8.65625 19.386719 C 8.171875 18.851562 8.136719 18.25 8.164062 17.558594 C 8.257812 16.097656 8.714844 14.53125 9.800781 13.511719 C 9.871094 13.488281 9.9375 13.464844 10.011719 13.441406 C 10.03125 13.394531 10.054688 13.347656 10.078125 13.300781 C 10.148438 13.300781 10.21875 13.300781 10.289062 13.300781 C 10.363281 13.277344 10.441406 13.253906 10.515625 13.230469 C 10.78125 13.160156 11 13.144531 11.273438 13.144531 Z M 11.273438 13.144531 "/>
<path style=" stroke:none;fill-rule:nonzero;fill:rgb(94.509804%,40.784314%,14.117648%);fill-opacity:1;" d="M 23.78125 6.796875 C 24.808594 7.683594 25.34375 8.835938 25.457031 10.1875 C 25.660156 13.355469 24.304688 16.375 22.609375 18.96875 C 22.5625 19.046875 22.511719 19.121094 22.460938 19.199219 C 21.804688 20.214844 21.074219 21.164062 20.269531 22.066406 C 20.160156 22.191406 20.050781 22.316406 19.945312 22.445312 C 19.5 22.96875 19.042969 23.464844 18.550781 23.941406 C 18.503906 23.917969 18.457031 23.894531 18.410156 23.871094 C 18.484375 23.769531 18.484375 23.769531 18.558594 23.664062 C 20.519531 20.933594 21.929688 18.007812 22.609375 14.699219 C 22.621094 14.644531 22.632812 14.589844 22.644531 14.53125 C 23.039062 12.566406 23.003906 10.3125 21.941406 8.546875 C 21.140625 7.402344 20.0625 6.976562 18.734375 6.738281 C 18.695312 6.730469 18.660156 6.726562 18.621094 6.71875 C 18.660156 6.589844 18.660156 6.589844 18.761719 6.441406 C 19.097656 6.308594 19.457031 6.238281 19.808594 6.160156 C 19.878906 6.144531 19.949219 6.128906 20.023438 6.109375 C 21.324219 5.851562 22.695312 5.972656 23.78125 6.796875 Z M 23.78125 6.796875 "/>
<path style=" stroke:none;fill-rule:nonzero;fill:rgb(2.745098%,3.137255%,3.921569%);fill-opacity:1;" d="M 16.800781 13.160156 C 18.1875 13.160156 19.570312 13.160156 21 13.160156 C 21.082031 13.40625 21.054688 13.515625 21.003906 13.765625 C 20.988281 13.84375 20.972656 13.921875 20.957031 14 C 20.941406 14.082031 20.925781 14.160156 20.90625 14.246094 C 20.882812 14.367188 20.882812 14.367188 20.859375 14.488281 C 20.738281 15.09375 20.738281 15.09375 20.578125 15.328125 C 20.394531 15.34375 20.230469 15.351562 20.046875 15.34375 C 19.996094 15.34375 19.949219 15.339844 19.894531 15.339844 C 19.773438 15.335938 19.652344 15.335938 19.53125 15.328125 C 19.523438 15.414062 19.515625 15.496094 19.507812 15.582031 C 19.457031 16.046875 19.359375 16.5 19.265625 16.957031 C 19.246094 17.054688 19.226562 17.148438 19.203125 17.246094 C 19.164062 17.449219 19.121094 17.652344 19.082031 17.851562 C 19.027344 18.105469 18.976562 18.363281 18.925781 18.617188 C 18.714844 19.648438 18.503906 20.675781 18.269531 21.699219 C 18.523438 21.699219 18.777344 21.699219 19.039062 21.699219 C 19.039062 22.003906 18.996094 22.09375 18.847656 22.351562 C 18.808594 22.421875 18.769531 22.492188 18.726562 22.5625 C 18.683594 22.636719 18.640625 22.710938 18.597656 22.785156 C 18.554688 22.859375 18.515625 22.929688 18.472656 23.007812 C 18.074219 23.699219 18.074219 23.699219 17.921875 23.871094 C 17.769531 23.902344 17.769531 23.902344 17.59375 23.902344 C 17.527344 23.902344 17.460938 23.902344 17.394531 23.902344 C 17.324219 23.898438 17.253906 23.898438 17.179688 23.898438 C 17.105469 23.898438 17.035156 23.898438 16.960938 23.894531 C 16.726562 23.894531 16.496094 23.890625 16.261719 23.886719 C 16.105469 23.886719 15.945312 23.886719 15.789062 23.882812 C 15.402344 23.878906 15.015625 23.875 14.628906 23.871094 C 14.699219 23.132812 14.699219 23.132812 14.765625 22.796875 C 14.777344 22.738281 14.789062 22.675781 14.800781 22.613281 C 14.816406 22.554688 14.828125 22.492188 14.839844 22.429688 C 14.851562 22.367188 14.863281 22.304688 14.878906 22.238281 C 14.972656 21.777344 14.972656 21.777344 15.050781 21.699219 C 15.226562 21.695312 15.402344 21.695312 15.578125 21.695312 C 15.628906 21.695312 15.679688 21.695312 15.730469 21.695312 C 15.851562 21.699219 15.976562 21.699219 16.101562 21.699219 C 16.105469 21.644531 16.113281 21.585938 16.121094 21.527344 C 16.214844 20.839844 16.347656 20.160156 16.496094 19.480469 C 16.519531 19.363281 16.546875 19.25 16.570312 19.132812 C 16.621094 18.890625 16.671875 18.652344 16.726562 18.410156 C 16.792969 18.101562 16.859375 17.792969 16.921875 17.484375 C 16.972656 17.246094 17.023438 17.007812 17.078125 16.769531 C 17.101562 16.65625 17.125 16.542969 17.148438 16.425781 C 17.183594 16.269531 17.21875 16.109375 17.25 15.953125 C 17.269531 15.863281 17.289062 15.773438 17.308594 15.679688 C 17.359375 15.46875 17.359375 15.46875 17.429688 15.328125 C 17.359375 15.332031 17.289062 15.332031 17.21875 15.332031 C 17.128906 15.332031 17.039062 15.332031 16.945312 15.335938 C 16.855469 15.335938 16.765625 15.335938 16.671875 15.335938 C 16.449219 15.328125 16.449219 15.328125 16.378906 15.261719 C 16.414062 14.808594 16.496094 14.375 16.589844 13.933594 C 16.609375 13.84375 16.609375 13.84375 16.628906 13.753906 C 16.71875 13.320312 16.71875 13.320312 16.800781 13.160156 Z M 16.800781 13.160156 "/>
<path style=" stroke:none;fill-rule:nonzero;fill:rgb(3.137255%,3.137255%,3.921569%);fill-opacity:1;" d="M 26.390625 7.980469 C 27.519531 9.265625 27.808594 11.464844 27.734375 13.105469 C 27.488281 16.589844 25.773438 19.675781 23.429688 22.195312 C 23.253906 22.386719 23.082031 22.578125 22.910156 22.773438 C 22.6875 23.019531 22.457031 23.246094 22.199219 23.460938 C 22.027344 23.609375 21.859375 23.765625 21.691406 23.921875 C 21.289062 24.289062 20.867188 24.625 20.433594 24.957031 C 20.292969 25.066406 20.152344 25.175781 20.011719 25.285156 C 18.511719 26.449219 16.921875 27.453125 15.257812 28.375 C 15.042969 28.492188 14.828125 28.617188 14.613281 28.738281 C 14.472656 28.816406 14.332031 28.894531 14.191406 28.972656 C 14.09375 29.027344 14.09375 29.027344 13.996094 29.082031 C 13.902344 29.132812 13.902344 29.132812 13.8125 29.183594 C 13.757812 29.214844 13.703125 29.246094 13.648438 29.273438 C 13.511719 29.328125 13.511719 29.328125 13.300781 29.261719 C 13.414062 29.167969 13.527344 29.074219 13.640625 28.984375 C 13.742188 28.902344 13.84375 28.820312 13.941406 28.738281 C 14.199219 28.53125 14.453125 28.324219 14.710938 28.117188 C 15.28125 27.65625 15.84375 27.1875 16.394531 26.707031 C 16.523438 26.59375 16.65625 26.484375 16.785156 26.371094 C 17.335938 25.898438 17.878906 25.414062 18.410156 24.921875 C 18.453125 24.878906 18.496094 24.839844 18.539062 24.800781 C 19.140625 24.242188 19.730469 23.675781 20.308594 23.101562 C 20.363281 23.046875 20.417969 22.992188 20.472656 22.933594 C 20.804688 22.605469 21.117188 22.265625 21.421875 21.910156 C 21.492188 21.828125 21.5625 21.746094 21.632812 21.664062 C 22.039062 21.195312 22.4375 20.71875 22.820312 20.230469 C 22.875 20.160156 22.929688 20.089844 22.988281 20.015625 C 25.011719 17.429688 26.847656 14.347656 26.832031 10.964844 C 26.832031 10.882812 26.832031 10.796875 26.832031 10.714844 C 26.820312 9.902344 26.6875 9.171875 26.429688 8.402344 C 26.390625 8.261719 26.390625 8.261719 26.390625 7.980469 Z M 26.390625 7.980469 "/>
<path style=" stroke:none;fill-rule:nonzero;fill:rgb(2.745098%,3.137255%,3.921569%);fill-opacity:1;" d="M 20.160156 8.609375 C 21.132812 9.453125 21.382812 10.824219 21.488281 12.039062 C 21.5 12.296875 21.5 12.554688 21.488281 12.808594 C 21.445312 12.808594 21.398438 12.808594 21.351562 12.808594 C 21.328125 12.757812 21.308594 12.703125 21.289062 12.648438 C 20.882812 11.628906 20.363281 10.976562 19.335938 10.507812 C 17.421875 9.789062 15.324219 10.160156 13.5 10.972656 C 12.332031 11.507812 11.292969 12.167969 10.414062 13.113281 C 10.289062 13.230469 10.289062 13.230469 10.078125 13.300781 C 10.1875 12.925781 10.433594 12.695312 10.695312 12.425781 C 10.742188 12.375 10.789062 12.328125 10.839844 12.277344 C 10.980469 12.125 11.125 11.976562 11.269531 11.828125 C 11.332031 11.765625 11.332031 11.765625 11.394531 11.699219 C 11.886719 11.191406 12.390625 10.71875 12.949219 10.289062 C 12.988281 10.261719 13.023438 10.230469 13.0625 10.199219 C 14.925781 8.753906 17.90625 6.945312 20.160156 8.609375 Z M 20.160156 8.609375 "/>
<path style=" stroke:none;fill-rule:nonzero;fill:rgb(79.215688%,45.09804%,28.235295%);fill-opacity:1;" d="M 23.78125 6.796875 C 24.808594 7.683594 25.34375 8.835938 25.457031 10.1875 C 25.601562 12.46875 24.910156 14.601562 23.953125 16.640625 C 23.902344 16.75 23.902344 16.75 23.855469 16.855469 C 23.808594 16.953125 23.808594 16.953125 23.757812 17.050781 C 23.730469 17.109375 23.703125 17.167969 23.675781 17.226562 C 23.589844 17.359375 23.589844 17.359375 23.378906 17.429688 C 23.421875 17.148438 23.511719 16.96875 23.660156 16.730469 C 23.707031 16.613281 23.757812 16.496094 23.800781 16.378906 C 23.847656 16.378906 23.890625 16.378906 23.941406 16.378906 C 23.945312 16.332031 23.953125 16.285156 23.957031 16.234375 C 24.003906 16.050781 24.054688 15.941406 24.148438 15.78125 C 24.265625 15.582031 24.308594 15.472656 24.359375 15.261719 C 24.402344 15.160156 24.445312 15.0625 24.488281 14.960938 C 24.667969 14.515625 24.769531 14.058594 24.871094 13.589844 C 24.902344 13.441406 24.9375 13.292969 24.96875 13.144531 C 25.074219 12.679688 25.15625 12.230469 25.132812 11.753906 C 25.128906 11.621094 25.128906 11.621094 25.171875 11.425781 C 25.214844 11.261719 25.214844 11.261719 25.132812 11.085938 C 25.046875 10.8125 25.050781 10.570312 25.058594 10.289062 C 25.070312 9.480469 25.046875 8.667969 24.570312 7.980469 C 24.5 7.933594 24.429688 7.886719 24.359375 7.839844 C 24.351562 7.78125 24.34375 7.722656 24.332031 7.664062 C 24.3125 7.578125 24.3125 7.578125 24.289062 7.488281 C 24.175781 7.4375 24.058594 7.394531 23.941406 7.351562 C 23.820312 7.234375 23.703125 7.121094 23.589844 7 C 23.535156 6.960938 23.484375 6.921875 23.429688 6.882812 C 23.390625 6.851562 23.351562 6.820312 23.308594 6.789062 C 23.308594 6.742188 23.308594 6.699219 23.308594 6.648438 C 23.148438 6.605469 22.988281 6.558594 22.820312 6.511719 C 22.820312 6.464844 22.820312 6.417969 22.820312 6.371094 C 22.769531 6.367188 22.722656 6.363281 22.671875 6.355469 C 22.609375 6.351562 22.542969 6.34375 22.480469 6.339844 C 22.414062 6.332031 22.351562 6.328125 22.285156 6.320312 C 22.121094 6.300781 22.121094 6.300781 21.980469 6.230469 C 21.769531 6.222656 21.5625 6.214844 21.355469 6.21875 C 21.265625 6.21875 21.265625 6.21875 21.171875 6.21875 C 20.726562 6.222656 20.3125 6.265625 19.878906 6.371094 C 19.761719 6.394531 19.648438 6.417969 19.53125 6.441406 C 19.554688 6.507812 19.578125 6.578125 19.601562 6.648438 C 19.832031 6.671875 20.0625 6.695312 20.300781 6.71875 C 20.300781 6.765625 20.300781 6.8125 20.300781 6.859375 C 20.613281 7 20.613281 7 20.929688 7.140625 C 20.929688 7.1875 20.929688 7.230469 20.929688 7.28125 C 20.996094 7.300781 21.0625 7.324219 21.132812 7.34375 C 21.351562 7.421875 21.351562 7.421875 21.488281 7.488281 C 21.488281 7.582031 21.488281 7.675781 21.488281 7.769531 C 21.582031 7.816406 21.675781 7.863281 21.769531 7.910156 C 21.746094 8.003906 21.722656 8.09375 21.699219 8.191406 C 21.671875 8.160156 21.648438 8.128906 21.621094 8.101562 C 20.808594 7.234375 19.765625 6.90625 18.621094 6.71875 C 18.660156 6.589844 18.660156 6.589844 18.761719 6.441406 C 19.097656 6.308594 19.457031 6.238281 19.808594 6.160156 C 19.878906 6.144531 19.949219 6.128906 20.023438 6.109375 C 21.324219 5.851562 22.695312 5.972656 23.78125 6.796875 Z M 23.78125 6.796875 "/>
<path style=" stroke:none;fill-rule:nonzero;fill:rgb(5.098039%,5.098039%,5.490196%);fill-opacity:1;" d="M 17.148438 26.039062 C 17.195312 26.0625 17.242188 26.085938 17.289062 26.109375 C 17.257812 26.136719 17.222656 26.164062 17.1875 26.191406 C 17.050781 26.355469 17.019531 26.457031 17.011719 26.671875 C 17.101562 26.832031 17.101562 26.832031 17.21875 26.949219 C 17.265625 26.925781 17.3125 26.902344 17.359375 26.878906 C 17.394531 26.984375 17.394531 26.984375 17.429688 27.089844 C 16.53125 27.675781 15.597656 28.199219 14.652344 28.710938 C 14.492188 28.800781 14.328125 28.890625 14.167969 28.984375 C 14.085938 29.03125 14.003906 29.074219 13.917969 29.121094 C 13.808594 29.183594 13.808594 29.183594 13.695312 29.246094 C 13.511719 29.328125 13.511719 29.328125 13.300781 29.261719 C 13.414062 29.167969 13.527344 29.074219 13.640625 28.984375 C 13.742188 28.902344 13.84375 28.820312 13.941406 28.738281 C 14.199219 28.53125 14.453125 28.324219 14.710938 28.117188 C 15.539062 27.445312 16.355469 26.753906 17.148438 26.039062 Z M 17.148438 26.039062 "/>
<path style=" stroke:none;fill-rule:nonzero;fill:rgb(83.529413%,44.705883%,25.098041%);fill-opacity:1;" d="M 21.769531 8.191406 C 21.816406 8.191406 21.863281 8.191406 21.910156 8.191406 C 21.910156 8.234375 21.910156 8.28125 21.910156 8.328125 C 21.980469 8.351562 22.046875 8.375 22.121094 8.398438 C 22.1875 8.542969 22.1875 8.542969 22.238281 8.71875 C 22.253906 8.777344 22.273438 8.835938 22.292969 8.894531 C 22.304688 8.9375 22.316406 8.984375 22.328125 9.03125 C 22.375 9.03125 22.421875 9.03125 22.46875 9.03125 C 22.46875 9.144531 22.46875 9.261719 22.46875 9.378906 C 22.539062 9.402344 22.609375 9.425781 22.679688 9.449219 C 22.742188 9.644531 22.742188 9.644531 22.792969 9.894531 C 22.808594 9.976562 22.828125 10.058594 22.84375 10.144531 C 22.960938 10.816406 22.976562 11.5 22.996094 12.183594 C 23 12.332031 23.003906 12.480469 23.007812 12.628906 C 23.027344 13.296875 23.035156 13.960938 23.03125 14.628906 C 22.984375 14.628906 22.9375 14.628906 22.890625 14.628906 C 22.855469 14.804688 22.824219 14.984375 22.789062 15.160156 C 22.78125 15.207031 22.769531 15.257812 22.761719 15.308594 C 22.714844 15.542969 22.675781 15.777344 22.644531 16.011719 C 22.617188 16.203125 22.578125 16.367188 22.515625 16.546875 C 22.496094 16.597656 22.476562 16.652344 22.457031 16.707031 C 22.4375 16.757812 22.417969 16.8125 22.398438 16.871094 C 22.359375 16.988281 22.320312 17.105469 22.28125 17.222656 C 22.25 17.316406 22.21875 17.40625 22.191406 17.5 C 22.144531 17.5 22.097656 17.5 22.050781 17.5 C 22.042969 17.566406 22.035156 17.632812 22.027344 17.703125 C 21.996094 17.925781 21.945312 18.144531 21.886719 18.363281 C 21.871094 18.421875 21.855469 18.480469 21.839844 18.539062 C 21.769531 18.691406 21.769531 18.691406 21.628906 18.757812 C 21.472656 18.820312 21.472656 18.820312 21.433594 18.996094 C 21.421875 19.058594 21.414062 19.125 21.402344 19.1875 C 21.390625 19.253906 21.382812 19.316406 21.371094 19.382812 C 21.363281 19.429688 21.355469 19.480469 21.351562 19.53125 C 21.304688 19.53125 21.257812 19.53125 21.210938 19.53125 C 21.175781 19.640625 21.144531 19.75 21.109375 19.863281 C 21.089844 19.925781 21.070312 19.984375 21.054688 20.050781 C 21.019531 20.15625 20.992188 20.265625 20.96875 20.375 C 20.902344 20.605469 20.773438 20.796875 20.648438 21 C 20.558594 21 20.464844 21 20.371094 21 C 20.464844 20.679688 20.601562 20.394531 20.753906 20.101562 C 21.621094 18.410156 22.226562 16.5625 22.609375 14.699219 C 22.621094 14.644531 22.632812 14.589844 22.644531 14.53125 C 23.042969 12.53125 22.992188 10.300781 21.910156 8.519531 C 21.839844 8.398438 21.839844 8.398438 21.769531 8.191406 Z M 21.769531 8.191406 "/>
<path style=" stroke:none;fill-rule:nonzero;fill:rgb(82.745099%,44.705883%,22.745098%);fill-opacity:1;" d="M 21.910156 19.878906 C 21.804688 20.191406 21.632812 20.425781 21.429688 20.679688 C 21.394531 20.722656 21.359375 20.765625 21.324219 20.808594 C 20.984375 21.238281 20.625 21.652344 20.265625 22.066406 C 20.160156 22.191406 20.054688 22.316406 19.949219 22.441406 C 19.503906 22.96875 19.042969 23.460938 18.550781 23.941406 C 18.503906 23.917969 18.457031 23.894531 18.410156 23.871094 C 18.484375 23.769531 18.484375 23.769531 18.558594 23.664062 C 19.035156 23.003906 19.480469 22.328125 19.910156 21.640625 C 19.953125 21.578125 19.992188 21.511719 20.03125 21.449219 C 20.082031 21.363281 20.082031 21.363281 20.136719 21.277344 C 20.230469 21.140625 20.230469 21.140625 20.371094 21 C 20.394531 21.117188 20.417969 21.230469 20.441406 21.351562 C 20.507812 21.375 20.578125 21.394531 20.648438 21.421875 C 20.648438 21.328125 20.648438 21.234375 20.648438 21.140625 C 20.746094 21.125 20.746094 21.125 20.847656 21.109375 C 21.078125 21.027344 21.078125 21.027344 21.136719 20.851562 C 21.167969 20.738281 21.195312 20.625 21.222656 20.507812 C 21.242188 20.464844 21.261719 20.417969 21.28125 20.371094 C 21.425781 20.316406 21.425781 20.316406 21.558594 20.300781 C 21.558594 20.183594 21.558594 20.070312 21.558594 19.949219 C 21.769531 19.878906 21.769531 19.878906 21.910156 19.878906 Z M 21.910156 19.878906 "/>
<path style=" stroke:none;fill-rule:nonzero;fill:rgb(92.156863%,41.176471%,16.470589%);fill-opacity:1;" d="M 21.488281 18.828125 C 21.535156 18.898438 21.582031 18.96875 21.628906 19.039062 C 21.808594 19.089844 21.808594 19.089844 21.980469 19.109375 C 21.980469 19.15625 21.980469 19.203125 21.980469 19.25 C 22.03125 19.195312 22.082031 19.136719 22.136719 19.078125 C 22.3125 18.917969 22.378906 18.855469 22.609375 18.828125 C 22.515625 19.089844 22.398438 19.316406 22.242188 19.546875 C 22.183594 19.640625 22.183594 19.640625 22.125 19.730469 C 21.941406 19.917969 21.8125 19.929688 21.558594 19.949219 C 21.558594 20.066406 21.558594 20.179688 21.558594 20.300781 C 21.492188 20.324219 21.421875 20.347656 21.351562 20.371094 C 21.277344 20.511719 21.277344 20.511719 21.222656 20.679688 C 21.097656 20.988281 21.097656 20.988281 20.84375 21.109375 C 20.777344 21.121094 20.714844 21.128906 20.648438 21.140625 C 20.648438 21.230469 20.648438 21.324219 20.648438 21.421875 C 20.558594 21.398438 20.464844 21.375 20.371094 21.351562 C 20.371094 21.234375 20.371094 21.117188 20.371094 21 C 20.417969 21 20.460938 21 20.511719 21 C 20.53125 20.953125 20.554688 20.90625 20.578125 20.859375 C 20.625 20.835938 20.671875 20.8125 20.71875 20.789062 C 20.921875 20.515625 20.953125 20.285156 21 19.949219 C 21.082031 19.707031 21.167969 19.503906 21.351562 19.320312 C 21.398438 19.15625 21.449219 18.996094 21.488281 18.828125 Z M 21.488281 18.828125 "/>
<path style=" stroke:none;fill-rule:nonzero;fill:rgb(6.27451%,5.490196%,7.058824%);fill-opacity:1;" d="M 12.671875 10.5 C 12.714844 10.523438 12.761719 10.546875 12.808594 10.570312 C 12.773438 10.597656 12.742188 10.621094 12.703125 10.648438 C 12.558594 10.832031 12.585938 10.972656 12.601562 11.199219 C 12.691406 11.222656 12.785156 11.246094 12.878906 11.269531 C 12.78125 11.324219 12.78125 11.324219 12.683594 11.382812 C 11.84375 11.871094 11.082031 12.394531 10.417969 13.109375 C 10.289062 13.230469 10.289062 13.230469 10.078125 13.300781 C 10.1875 12.925781 10.433594 12.695312 10.695312 12.425781 C 10.742188 12.375 10.789062 12.328125 10.839844 12.277344 C 10.980469 12.128906 11.125 11.976562 11.269531 11.828125 C 11.3125 11.785156 11.355469 11.742188 11.402344 11.695312 C 11.808594 11.277344 12.21875 10.867188 12.671875 10.5 Z M 12.671875 10.5 "/>
<path style=" stroke:none;fill-rule:nonzero;fill:rgb(5.490196%,5.098039%,5.882353%);fill-opacity:1;" d="M 16.378906 26.738281 C 16.378906 26.960938 16.359375 27.050781 16.238281 27.230469 C 16.148438 27.257812 16.054688 27.28125 15.960938 27.300781 C 15.914062 27.371094 15.867188 27.4375 15.820312 27.511719 C 15.75 27.53125 15.679688 27.554688 15.609375 27.578125 C 15.519531 27.730469 15.46875 27.824219 15.46875 28 C 15.585938 28 15.699219 28 15.820312 28 C 15.453125 28.3125 15.039062 28.527344 14.617188 28.753906 C 14.480469 28.828125 14.34375 28.902344 14.207031 28.976562 C 14.121094 29.023438 14.035156 29.070312 13.945312 29.117188 C 13.867188 29.160156 13.789062 29.203125 13.707031 29.246094 C 13.511719 29.328125 13.511719 29.328125 13.300781 29.261719 C 13.414062 29.167969 13.527344 29.074219 13.640625 28.984375 C 13.742188 28.902344 13.84375 28.820312 13.941406 28.738281 C 14.199219 28.527344 14.457031 28.320312 14.714844 28.113281 C 15.273438 27.660156 15.828125 27.203125 16.378906 26.738281 Z M 16.378906 26.738281 "/>
<path style=" stroke:none;fill-rule:nonzero;fill:rgb(78.823531%,46.666667%,29.411766%);fill-opacity:1;" d="M 25.339844 11.199219 C 25.363281 11.199219 25.386719 11.199219 25.410156 11.199219 C 25.550781 13.347656 24.546875 15.605469 23.519531 17.429688 C 23.472656 17.429688 23.425781 17.429688 23.378906 17.429688 C 23.421875 17.148438 23.511719 16.96875 23.660156 16.730469 C 23.707031 16.613281 23.757812 16.496094 23.800781 16.378906 C 23.847656 16.378906 23.890625 16.378906 23.941406 16.378906 C 23.945312 16.332031 23.953125 16.285156 23.957031 16.234375 C 24.003906 16.050781 24.054688 15.941406 24.148438 15.78125 C 24.265625 15.582031 24.308594 15.472656 24.359375 15.261719 C 24.402344 15.160156 24.445312 15.0625 24.488281 14.960938 C 24.667969 14.515625 24.769531 14.054688 24.867188 13.585938 C 24.898438 13.433594 24.929688 13.285156 24.964844 13.136719 C 25.066406 12.65625 25.152344 12.179688 25.199219 11.691406 C 25.238281 11.523438 25.289062 11.363281 25.339844 11.199219 Z M 25.339844 11.199219 "/>
<path style=" stroke:none;fill-rule:nonzero;fill:rgb(15.294118%,14.509805%,15.686275%);fill-opacity:1;" d="M 26.390625 7.980469 C 26.652344 8.273438 26.800781 8.582031 26.953125 8.9375 C 26.980469 8.992188 27.003906 9.050781 27.027344 9.109375 C 27.492188 10.1875 27.492188 10.1875 27.371094 10.570312 C 27.324219 10.523438 27.277344 10.476562 27.230469 10.429688 C 27.183594 10.429688 27.136719 10.429688 27.089844 10.429688 C 27.015625 10.210938 27.023438 10.152344 27.089844 9.941406 C 26.96875 10.0625 27.003906 10.234375 26.996094 10.398438 C 26.996094 10.476562 26.992188 10.558594 26.988281 10.636719 C 26.984375 10.722656 26.984375 10.804688 26.980469 10.890625 C 26.976562 10.972656 26.972656 11.054688 26.972656 11.140625 C 26.964844 11.347656 26.957031 11.554688 26.949219 11.761719 C 26.925781 11.761719 26.902344 11.761719 26.878906 11.761719 C 26.878906 11.710938 26.878906 11.664062 26.875 11.617188 C 26.851562 10.5 26.785156 9.46875 26.429688 8.402344 C 26.390625 8.261719 26.390625 8.261719 26.390625 7.980469 Z M 26.390625 7.980469 "/>
<path style=" stroke:none;fill-rule:nonzero;fill:rgb(76.47059%,49.019608%,32.549021%);fill-opacity:1;" d="M 20.511719 21.488281 C 20.578125 21.511719 20.648438 21.535156 20.71875 21.558594 C 20.664062 21.621094 20.664062 21.621094 20.605469 21.6875 C 20.324219 21.996094 20.050781 22.304688 19.792969 22.632812 C 19.414062 23.101562 18.984375 23.519531 18.550781 23.941406 C 18.503906 23.917969 18.457031 23.894531 18.410156 23.871094 C 18.464844 23.796875 18.515625 23.722656 18.570312 23.644531 C 19.027344 23.007812 19.464844 22.363281 19.878906 21.699219 C 19.949219 21.910156 19.949219 21.910156 19.894531 22.039062 C 19.820312 22.160156 19.746094 22.277344 19.671875 22.398438 C 19.882812 22.28125 19.882812 22.28125 19.949219 22.121094 C 20.089844 21.910156 20.089844 21.910156 20.300781 21.839844 C 20.417969 21.664062 20.417969 21.664062 20.511719 21.488281 Z M 20.511719 21.488281 "/>
<path style=" stroke:none;fill-rule:nonzero;fill:rgb(80.000001%,47.450981%,30.980393%);fill-opacity:1;" d="M 22.191406 16.449219 C 22.214844 16.449219 22.234375 16.449219 22.261719 16.449219 C 22.234375 16.867188 22.15625 17.183594 21.980469 17.570312 C 21.949219 17.671875 21.917969 17.769531 21.886719 17.871094 C 21.726562 18.429688 21.535156 18.980469 21.351562 19.53125 C 21.304688 19.53125 21.257812 19.53125 21.210938 19.53125 C 21.175781 19.640625 21.144531 19.75 21.109375 19.863281 C 21.089844 19.925781 21.070312 19.984375 21.054688 20.050781 C 21.019531 20.15625 20.992188 20.265625 20.96875 20.375 C 20.902344 20.605469 20.773438 20.796875 20.648438 21 C 20.558594 21 20.464844 21 20.371094 21 C 20.464844 20.679688 20.601562 20.394531 20.753906 20.101562 C 21.351562 18.9375 21.796875 17.695312 22.191406 16.449219 Z M 22.191406 16.449219 "/>
<path style=" stroke:none;fill-rule:nonzero;fill:rgb(87.843138%,43.529412%,18.82353%);fill-opacity:1;" d="M 25.128906 9.308594 C 25.199219 9.332031 25.269531 9.355469 25.339844 9.378906 C 25.363281 9.566406 25.386719 9.757812 25.410156 9.945312 C 25.417969 9.996094 25.421875 10.050781 25.429688 10.105469 C 25.484375 10.550781 25.535156 10.972656 25.375 11.40625 C 25.355469 11.460938 25.335938 11.515625 25.316406 11.570312 C 25.300781 11.609375 25.285156 11.648438 25.269531 11.691406 C 25.222656 11.667969 25.175781 11.644531 25.128906 11.621094 C 25.144531 11.570312 25.160156 11.523438 25.171875 11.472656 C 25.214844 11.269531 25.214844 11.269531 25.132812 11.09375 C 25.03125 10.757812 25.042969 10.441406 25.046875 10.09375 C 25.046875 9.992188 25.046875 9.992188 25.046875 9.886719 C 25.050781 9.390625 25.050781 9.390625 25.128906 9.308594 Z M 25.128906 9.308594 "/>
<path style=" stroke:none;fill-rule:nonzero;fill:rgb(88.627452%,41.960785%,19.607843%);fill-opacity:1;" d="M 24.988281 12.671875 C 25.078125 12.921875 25.042969 13.101562 24.980469 13.359375 C 24.964844 13.4375 24.945312 13.515625 24.925781 13.597656 C 24.90625 13.679688 24.886719 13.761719 24.867188 13.847656 C 24.847656 13.929688 24.832031 14.007812 24.8125 14.09375 C 24.714844 14.503906 24.609375 14.878906 24.429688 15.261719 C 24.394531 15.351562 24.363281 15.445312 24.328125 15.535156 C 24.222656 15.828125 24.082031 16.101562 23.941406 16.378906 C 23.894531 16.378906 23.847656 16.378906 23.800781 16.378906 C 23.777344 16.425781 23.753906 16.472656 23.730469 16.519531 C 23.765625 16.207031 23.847656 16.015625 24.011719 15.75 C 24.039062 15.636719 24.070312 15.523438 24.097656 15.414062 C 24.164062 15.214844 24.261719 15.039062 24.355469 14.851562 C 24.625 14.289062 24.699219 13.707031 24.78125 13.089844 C 24.828125 13.089844 24.871094 13.089844 24.921875 13.089844 C 24.941406 12.953125 24.964844 12.8125 24.988281 12.671875 Z M 24.988281 12.671875 "/>
<path style=" stroke:none;fill-rule:nonzero;fill:rgb(84.705883%,45.09804%,24.313726%);fill-opacity:1;" d="M 20.300781 6.71875 C 20.300781 6.765625 20.300781 6.8125 20.300781 6.859375 C 20.613281 7 20.613281 7 20.929688 7.140625 C 20.929688 7.1875 20.929688 7.230469 20.929688 7.28125 C 20.996094 7.300781 21.0625 7.324219 21.132812 7.34375 C 21.351562 7.421875 21.351562 7.421875 21.488281 7.488281 C 21.488281 7.582031 21.488281 7.675781 21.488281 7.769531 C 21.582031 7.816406 21.675781 7.863281 21.769531 7.910156 C 21.746094 8.003906 21.722656 8.09375 21.699219 8.191406 C 21.660156 8.144531 21.660156 8.144531 21.621094 8.101562 C 21.046875 7.492188 20.398438 7.15625 19.601562 6.929688 C 19.601562 6.882812 19.601562 6.835938 19.601562 6.789062 C 19.824219 6.675781 20.050781 6.714844 20.300781 6.71875 Z M 20.300781 6.71875 "/>
<path style=" stroke:none;fill-rule:nonzero;fill:rgb(88.627452%,41.960785%,18.039216%);fill-opacity:1;" d="M 22.820312 6.371094 C 22.820312 6.417969 22.820312 6.460938 22.820312 6.511719 C 22.78125 6.5 22.746094 6.488281 22.707031 6.480469 C 22.222656 6.371094 21.753906 6.355469 21.261719 6.355469 C 21.195312 6.355469 21.128906 6.355469 21.0625 6.355469 C 20.707031 6.359375 20.371094 6.378906 20.019531 6.441406 C 20.042969 6.578125 20.042969 6.578125 20.089844 6.71875 C 20.136719 6.742188 20.183594 6.765625 20.230469 6.789062 C 20.128906 6.785156 20.027344 6.78125 19.921875 6.773438 C 19.839844 6.769531 19.839844 6.769531 19.75 6.761719 C 19.601562 6.71875 19.601562 6.71875 19.511719 6.578125 C 19.492188 6.53125 19.476562 6.488281 19.460938 6.441406 C 19.554688 6.40625 19.644531 6.371094 19.738281 6.339844 C 19.792969 6.320312 19.84375 6.300781 19.898438 6.28125 C 20.816406 6.03125 21.921875 6.070312 22.820312 6.371094 Z M 22.820312 6.371094 "/>
<path style=" stroke:none;fill-rule:nonzero;fill:rgb(7.450981%,7.450981%,8.235294%);fill-opacity:1;" d="M 11.25 13.152344 C 11.320312 13.152344 11.320312 13.152344 11.390625 13.152344 C 11.542969 13.152344 11.695312 13.152344 11.847656 13.152344 C 11.953125 13.152344 12.0625 13.152344 12.167969 13.152344 C 12.445312 13.152344 12.726562 13.15625 13.003906 13.15625 C 13.292969 13.15625 13.578125 13.15625 13.863281 13.15625 C 14.421875 13.15625 14.980469 13.160156 15.539062 13.160156 C 15.539062 13.320312 15.539062 13.484375 15.539062 13.648438 C 15.515625 13.648438 15.492188 13.648438 15.46875 13.648438 C 15.433594 13.476562 15.433594 13.476562 15.398438 13.300781 C 14.851562 13.296875 14.300781 13.296875 13.75 13.296875 C 13.496094 13.296875 13.242188 13.296875 12.984375 13.292969 C 12.738281 13.292969 12.492188 13.292969 12.246094 13.292969 C 12.105469 13.292969 11.96875 13.292969 11.828125 13.292969 C 11.742188 13.292969 11.65625 13.292969 11.570312 13.292969 C 11.496094 13.292969 11.417969 13.292969 11.34375 13.292969 C 11.125 13.300781 10.921875 13.332031 10.710938 13.371094 C 10.570312 13.371094 10.429688 13.375 10.289062 13.371094 C 10.613281 13.152344 10.859375 13.152344 11.25 13.152344 Z M 11.25 13.152344 "/>
<path style=" stroke:none;fill-rule:nonzero;fill:rgb(6.27451%,5.490196%,6.666667%);fill-opacity:1;" d="M 11.410156 11.691406 C 11.550781 11.898438 11.550781 11.898438 11.542969 12.039062 C 11.460938 12.222656 11.359375 12.292969 11.195312 12.40625 C 10.90625 12.621094 10.65625 12.855469 10.410156 13.117188 C 10.289062 13.230469 10.289062 13.230469 10.078125 13.300781 C 10.167969 13.042969 10.269531 12.871094 10.457031 12.675781 C 10.527344 12.601562 10.527344 12.601562 10.597656 12.527344 C 10.648438 12.476562 10.695312 12.429688 10.746094 12.375 C 10.816406 12.300781 10.816406 12.300781 10.890625 12.222656 C 11.0625 12.042969 11.234375 11.867188 11.410156 11.691406 Z M 11.410156 11.691406 "/>
<path style=" stroke:none;fill-rule:nonzero;fill:rgb(6.666667%,6.27451%,7.450981%);fill-opacity:1;" d="M 24.429688 17.988281 C 24.476562 18.082031 24.523438 18.175781 24.570312 18.269531 C 24.523438 18.316406 24.476562 18.363281 24.429688 18.410156 C 24.453125 18.480469 24.476562 18.546875 24.5 18.621094 C 24.429688 18.722656 24.429688 18.722656 24.359375 18.828125 C 24.382812 18.875 24.40625 18.921875 24.429688 18.96875 C 24.359375 18.96875 24.292969 18.96875 24.21875 18.96875 C 24.152344 19.003906 24.152344 19.003906 24.078125 19.039062 C 24.035156 19.183594 24.035156 19.183594 24.011719 19.320312 C 23.964844 19.308594 23.921875 19.292969 23.878906 19.28125 C 23.726562 19.234375 23.726562 19.234375 23.589844 19.320312 C 23.679688 19.132812 23.78125 18.957031 23.898438 18.78125 C 23.929688 18.738281 23.960938 18.691406 23.992188 18.640625 C 24.023438 18.59375 24.054688 18.546875 24.089844 18.496094 C 24.121094 18.449219 24.152344 18.398438 24.1875 18.347656 C 24.269531 18.230469 24.347656 18.109375 24.429688 17.988281 Z M 24.429688 17.988281 "/>
<path style=" stroke:none;fill-rule:nonzero;fill:rgb(87.450981%,41.568628%,18.82353%);fill-opacity:1;" d="M 22.679688 9.378906 C 23.25 10.234375 23.082031 11.625 23.101562 12.601562 C 23.144531 12.601562 23.191406 12.601562 23.238281 12.601562 C 23.207031 12.773438 23.207031 12.773438 23.171875 12.949219 C 23.066406 12.984375 23.066406 12.984375 22.960938 13.019531 C 22.957031 12.972656 22.957031 12.921875 22.957031 12.871094 C 22.925781 11.910156 22.882812 10.964844 22.75 10.011719 C 22.734375 9.878906 22.71875 9.75 22.707031 9.621094 C 22.699219 9.542969 22.6875 9.460938 22.679688 9.378906 Z M 22.679688 9.378906 "/>
<path style=" stroke:none;fill-rule:nonzero;fill:rgb(8.627451%,6.666667%,9.019608%);fill-opacity:1;" d="M 14.558594 28.351562 C 14.582031 28.417969 14.605469 28.488281 14.628906 28.558594 C 14.652344 28.605469 14.675781 28.652344 14.699219 28.699219 C 14.507812 28.808594 14.3125 28.914062 14.117188 29.019531 C 14.0625 29.050781 14.007812 29.082031 13.953125 29.113281 C 13.898438 29.140625 13.84375 29.167969 13.789062 29.199219 C 13.71875 29.238281 13.71875 29.238281 13.644531 29.28125 C 13.511719 29.328125 13.511719 29.328125 13.300781 29.261719 C 13.484375 29.109375 13.667969 28.957031 13.851562 28.804688 C 13.902344 28.761719 13.957031 28.71875 14.007812 28.671875 C 14.058594 28.632812 14.109375 28.589844 14.160156 28.550781 C 14.207031 28.511719 14.253906 28.472656 14.300781 28.433594 C 14.421875 28.351562 14.421875 28.351562 14.558594 28.351562 Z M 14.558594 28.351562 "/>
<path style=" stroke:none;fill-rule:nonzero;fill:rgb(2.745098%,2.352941%,3.137255%);fill-opacity:1;" d="M 15.960938 27.230469 C 16.050781 27.253906 16.144531 27.277344 16.238281 27.300781 C 16.1875 27.382812 16.1875 27.382812 16.128906 27.464844 C 16.097656 27.527344 16.0625 27.585938 16.03125 27.648438 C 16.054688 27.695312 16.078125 27.742188 16.101562 27.789062 C 16.03125 27.894531 16.03125 27.894531 15.960938 28 C 15.707031 28.011719 15.707031 28.011719 15.46875 28 C 15.445312 27.929688 15.421875 27.863281 15.398438 27.789062 C 15.523438 27.578125 15.582031 27.519531 15.820312 27.441406 C 15.867188 27.371094 15.914062 27.300781 15.960938 27.230469 Z M 15.960938 27.230469 "/>
<path style=" stroke:none;fill-rule:nonzero;fill:rgb(7.843138%,7.843138%,9.019608%);fill-opacity:1;" d="M 16.800781 13.160156 C 18.1875 13.160156 19.570312 13.160156 21 13.160156 C 21.035156 13.265625 21.035156 13.265625 21.070312 13.371094 C 21 13.347656 20.929688 13.324219 20.859375 13.300781 C 20.726562 13.292969 20.597656 13.289062 20.464844 13.285156 C 20.382812 13.285156 20.300781 13.28125 20.21875 13.28125 C 20.085938 13.28125 20.085938 13.28125 19.953125 13.277344 C 19.863281 13.277344 19.773438 13.273438 19.679688 13.273438 C 19.441406 13.269531 19.203125 13.265625 18.964844 13.261719 C 18.71875 13.257812 18.476562 13.253906 18.234375 13.25 C 17.753906 13.242188 17.277344 13.238281 16.800781 13.230469 C 16.800781 13.207031 16.800781 13.183594 16.800781 13.160156 Z M 16.800781 13.160156 "/>
<path style=" stroke:none;fill-rule:nonzero;fill:rgb(82.745099%,43.921569%,22.352941%);fill-opacity:1;" d="M 23.238281 17.5 C 23.308594 17.523438 23.378906 17.546875 23.449219 17.570312 C 23.335938 17.765625 23.222656 17.964844 23.109375 18.160156 C 23.078125 18.214844 23.042969 18.273438 23.011719 18.332031 C 22.980469 18.382812 22.949219 18.4375 22.917969 18.492188 C 22.886719 18.542969 22.859375 18.59375 22.832031 18.644531 C 22.75 18.761719 22.75 18.761719 22.609375 18.828125 C 22.628906 18.425781 22.648438 18.140625 22.960938 17.851562 C 23.007812 17.851562 23.050781 17.851562 23.101562 17.851562 C 23.144531 17.734375 23.191406 17.617188 23.238281 17.5 Z M 23.238281 17.5 "/>
<path style=" stroke:none;fill-rule:nonzero;fill:rgb(3.921569%,3.137255%,4.313726%);fill-opacity:1;" d="M 11.96875 11.269531 C 12.039062 11.339844 12.109375 11.410156 12.179688 11.480469 C 12.179688 11.550781 12.179688 11.617188 12.179688 11.691406 C 11.972656 11.804688 11.765625 11.921875 11.550781 12.039062 C 11.527344 11.902344 11.503906 11.761719 11.480469 11.621094 C 11.640625 11.503906 11.804688 11.390625 11.96875 11.269531 Z M 11.96875 11.269531 "/>
<path style=" stroke:none;fill-rule:nonzero;fill:rgb(77.64706%,51.372552%,37.64706%);fill-opacity:1;" d="M 19.460938 6.371094 C 19.355469 6.472656 19.355469 6.472656 19.25 6.578125 C 19.410156 6.625 19.574219 6.671875 19.738281 6.71875 C 19.601562 6.859375 19.601562 6.859375 19.441406 6.859375 C 19.351562 6.847656 19.351562 6.847656 19.257812 6.839844 C 19.167969 6.828125 19.167969 6.828125 19.074219 6.816406 C 18.921875 6.792969 18.773438 6.761719 18.621094 6.71875 C 18.664062 6.589844 18.664062 6.589844 18.761719 6.441406 C 19.015625 6.324219 19.191406 6.265625 19.460938 6.371094 Z M 19.460938 6.371094 "/>
<path style=" stroke:none;fill-rule:nonzero;fill:rgb(79.607844%,45.490196%,28.627452%);fill-opacity:1;" d="M 21.910156 19.878906 C 21.800781 20.222656 21.601562 20.464844 21.375 20.742188 C 21.320312 20.808594 21.320312 20.808594 21.265625 20.878906 C 21.179688 20.988281 21.089844 21.101562 21 21.210938 C 20.976562 21.140625 20.953125 21.070312 20.929688 21 C 20.976562 21 21.023438 21 21.070312 21 C 21.082031 20.957031 21.09375 20.910156 21.105469 20.863281 C 21.125 20.808594 21.140625 20.75 21.15625 20.6875 C 21.183594 20.601562 21.183594 20.601562 21.207031 20.515625 C 21.28125 20.371094 21.28125 20.371094 21.425781 20.316406 C 21.492188 20.308594 21.492188 20.308594 21.558594 20.300781 C 21.558594 20.183594 21.558594 20.070312 21.558594 19.949219 C 21.769531 19.878906 21.769531 19.878906 21.910156 19.878906 Z M 21.910156 19.878906 "/>
<path style=" stroke:none;fill-rule:nonzero;fill:rgb(8.627451%,8.627451%,9.803922%);fill-opacity:1;" d="M 10.710938 17.359375 C 11.101562 17.367188 11.496094 17.378906 11.886719 17.386719 C 12.019531 17.390625 12.152344 17.390625 12.289062 17.394531 C 12.480469 17.398438 12.671875 17.402344 12.863281 17.40625 C 12.921875 17.410156 12.980469 17.410156 13.042969 17.410156 C 13.324219 17.417969 13.585938 17.433594 13.859375 17.5 C 13.859375 17.523438 13.859375 17.546875 13.859375 17.570312 C 13.433594 17.570312 13.007812 17.574219 12.582031 17.574219 C 12.4375 17.574219 12.292969 17.574219 12.148438 17.574219 C 11.9375 17.574219 11.730469 17.578125 11.523438 17.578125 C 11.457031 17.578125 11.390625 17.578125 11.324219 17.578125 C 11.265625 17.578125 11.203125 17.578125 11.140625 17.578125 C 11.0625 17.578125 11.0625 17.578125 10.980469 17.578125 C 10.851562 17.570312 10.851562 17.570312 10.710938 17.5 C 10.710938 17.453125 10.710938 17.40625 10.710938 17.359375 Z M 10.710938 17.359375 "/>
<path style=" stroke:none;fill-rule:nonzero;fill:rgb(17.647059%,16.862746%,18.039216%);fill-opacity:1;" d="M 21.28125 10.921875 C 21.304688 10.921875 21.328125 10.921875 21.351562 10.921875 C 21.4375 11.554688 21.515625 12.167969 21.488281 12.808594 C 21.445312 12.808594 21.398438 12.808594 21.351562 12.808594 C 21.304688 12.625 21.257812 12.441406 21.210938 12.25 C 21.234375 12.25 21.257812 12.25 21.28125 12.25 C 21.285156 11.980469 21.289062 11.734375 21.242188 11.46875 C 21.207031 11.261719 21.226562 11.121094 21.28125 10.921875 Z M 21.28125 10.921875 "/>
<path style=" stroke:none;fill-rule:nonzero;fill:rgb(62.7451%,50.588238%,41.960785%);fill-opacity:1;" d="M 19.039062 22.960938 C 19.132812 23.03125 19.226562 23.097656 19.320312 23.171875 C 19.066406 23.425781 18.8125 23.679688 18.550781 23.941406 C 18.503906 23.917969 18.457031 23.894531 18.410156 23.871094 C 18.617188 23.570312 18.824219 23.269531 19.039062 22.960938 Z M 19.039062 22.960938 "/>
<path style=" stroke:none;fill-rule:nonzero;fill:rgb(81.960785%,44.313726%,23.137255%);fill-opacity:1;" d="M 20.71875 20.230469 C 20.8125 20.230469 20.90625 20.230469 21 20.230469 C 20.953125 20.523438 20.800781 20.75 20.648438 21 C 20.558594 21 20.464844 21 20.371094 21 C 20.453125 20.71875 20.539062 20.464844 20.71875 20.230469 Z M 20.71875 20.230469 "/>
<path style=" stroke:none;fill-rule:nonzero;fill:rgb(6.27451%,6.27451%,7.450981%);fill-opacity:1;" d="M 24.988281 19.808594 C 25.058594 19.832031 25.128906 19.855469 25.199219 19.878906 C 25.089844 20.207031 24.914062 20.445312 24.710938 20.71875 C 24.570312 20.511719 24.570312 20.511719 24.597656 20.320312 C 24.609375 20.269531 24.625 20.214844 24.640625 20.160156 C 24.710938 20.160156 24.777344 20.160156 24.851562 20.160156 C 24.851562 20.089844 24.851562 20.019531 24.851562 19.949219 C 24.894531 19.949219 24.941406 19.949219 24.988281 19.949219 C 24.988281 19.902344 24.988281 19.859375 24.988281 19.808594 Z M 24.988281 19.808594 "/>
<path style=" stroke:none;fill-rule:nonzero;fill:rgb(14.509805%,12.941177%,16.470589%);fill-opacity:1;" d="M 10.921875 12.179688 C 10.921875 12.25 10.921875 12.320312 10.921875 12.390625 C 10.875 12.4375 10.828125 12.480469 10.78125 12.53125 C 10.78125 12.597656 10.78125 12.667969 10.78125 12.738281 C 10.679688 12.867188 10.679688 12.867188 10.546875 12.992188 C 10.484375 13.058594 10.484375 13.058594 10.417969 13.125 C 10.289062 13.230469 10.289062 13.230469 10.078125 13.300781 C 10.179688 12.984375 10.355469 12.777344 10.578125 12.542969 C 10.613281 12.507812 10.644531 12.472656 10.679688 12.4375 C 10.757812 12.351562 10.839844 12.265625 10.921875 12.179688 Z M 10.921875 12.179688 "/>
<path style=" stroke:none;fill-rule:nonzero;fill:rgb(80.392158%,45.490196%,28.235295%);fill-opacity:1;" d="M 25.128906 9.449219 C 25.199219 9.449219 25.269531 9.449219 25.339844 9.449219 C 25.410156 9.683594 25.417969 9.890625 25.414062 10.132812 C 25.414062 10.203125 25.414062 10.269531 25.414062 10.339844 C 25.410156 10.394531 25.410156 10.445312 25.410156 10.5 C 25.339844 10.523438 25.269531 10.546875 25.199219 10.570312 C 25.175781 10.199219 25.152344 9.832031 25.128906 9.449219 Z M 25.128906 9.449219 "/>
<path style=" stroke:none;fill-rule:nonzero;fill:rgb(20.392157%,15.686275%,20%);fill-opacity:1;" d="M 26.390625 7.980469 C 26.628906 8.25 26.832031 8.546875 26.949219 8.890625 C 26.925781 8.960938 26.902344 9.027344 26.878906 9.101562 C 26.855469 9.054688 26.832031 9.007812 26.808594 8.960938 C 26.742188 9.0625 26.742188 9.0625 26.671875 9.171875 C 26.621094 9.023438 26.578125 8.878906 26.53125 8.734375 C 26.503906 8.652344 26.476562 8.570312 26.453125 8.488281 C 26.390625 8.261719 26.390625 8.261719 26.390625 7.980469 Z M 26.390625 7.980469 "/>
<path style=" stroke:none;fill-rule:nonzero;fill:rgb(76.47059%,45.882353%,29.019609%);fill-opacity:1;" d="M 22.398438 18.828125 C 22.46875 18.828125 22.539062 18.828125 22.609375 18.828125 C 22.511719 19.101562 22.386719 19.316406 22.214844 19.550781 C 22.171875 19.613281 22.128906 19.675781 22.082031 19.738281 C 22.046875 19.785156 22.015625 19.832031 21.980469 19.878906 C 21.910156 19.738281 21.910156 19.738281 21.957031 19.597656 C 22.234375 18.996094 22.234375 18.996094 22.398438 18.828125 Z M 22.398438 18.828125 "/>
<path style=" stroke:none;fill-rule:nonzero;fill:rgb(86.666667%,43.529412%,18.82353%);fill-opacity:1;" d="M 22.890625 14.070312 C 22.914062 14.070312 22.9375 14.070312 22.960938 14.070312 C 22.984375 14.253906 23.007812 14.441406 23.03125 14.628906 C 22.984375 14.628906 22.9375 14.628906 22.890625 14.628906 C 22.820312 15 22.75 15.371094 22.679688 15.75 C 22.65625 15.75 22.632812 15.75 22.609375 15.75 C 22.609375 15.402344 22.609375 15.058594 22.609375 14.699219 C 22.65625 14.675781 22.703125 14.652344 22.75 14.628906 C 22.796875 14.496094 22.796875 14.496094 22.828125 14.34375 C 22.839844 14.292969 22.851562 14.242188 22.863281 14.191406 C 22.871094 14.152344 22.882812 14.109375 22.890625 14.070312 Z M 22.890625 14.070312 "/>
<path style=" stroke:none;fill-rule:nonzero;fill:rgb(90.196079%,42.352942%,19.215687%);fill-opacity:1;" d="M 21.980469 19.25 C 22.027344 19.25 22.074219 19.25 22.121094 19.25 C 22.050781 19.457031 21.980469 19.664062 21.910156 19.878906 C 21.792969 19.902344 21.679688 19.925781 21.558594 19.949219 C 21.558594 20.066406 21.558594 20.179688 21.558594 20.300781 C 21.492188 20.300781 21.421875 20.300781 21.351562 20.300781 C 21.398438 20.0625 21.398438 20.0625 21.488281 19.808594 C 21.605469 19.761719 21.722656 19.714844 21.839844 19.671875 C 21.9375 19.457031 21.9375 19.457031 21.980469 19.25 Z M 21.980469 19.25 "/>
<path style=" stroke:none;fill-rule:nonzero;fill:rgb(90.588236%,43.921569%,18.431373%);fill-opacity:1;" d="M 23.660156 16.519531 C 23.730469 16.730469 23.730469 16.730469 23.660156 16.902344 C 23.628906 16.964844 23.59375 17.027344 23.558594 17.09375 C 23.527344 17.15625 23.492188 17.21875 23.460938 17.285156 C 23.433594 17.332031 23.40625 17.378906 23.378906 17.429688 C 23.425781 17.453125 23.472656 17.476562 23.519531 17.5 C 23.40625 17.523438 23.289062 17.546875 23.171875 17.570312 C 23.121094 17.449219 23.121094 17.449219 23.101562 17.289062 C 23.199219 17.128906 23.199219 17.128906 23.335938 16.964844 C 23.515625 16.753906 23.515625 16.753906 23.660156 16.519531 Z M 23.660156 16.519531 "/>
<path style=" stroke:none;fill-rule:nonzero;fill:rgb(83.529413%,43.921569%,23.137255%);fill-opacity:1;" d="M 22.960938 13.019531 C 22.984375 13.019531 23.007812 13.019531 23.03125 13.019531 C 23.007812 13.613281 22.972656 14.144531 22.75 14.699219 C 22.726562 14.699219 22.703125 14.699219 22.679688 14.699219 C 22.714844 14.121094 22.820312 13.578125 22.960938 13.019531 Z M 22.960938 13.019531 "/>
<path style=" stroke:none;fill-rule:nonzero;fill:rgb(10.980392%,10.196079%,11.372549%);fill-opacity:1;" d="M 16.378906 26.738281 C 16.378906 26.960938 16.359375 27.050781 16.238281 27.230469 C 16.148438 27.257812 16.054688 27.28125 15.960938 27.300781 C 15.890625 27.402344 15.890625 27.402344 15.820312 27.511719 C 15.644531 27.632812 15.644531 27.632812 15.46875 27.71875 C 15.421875 27.695312 15.378906 27.671875 15.328125 27.648438 C 15.453125 27.539062 15.574219 27.425781 15.699219 27.3125 C 15.730469 27.28125 15.765625 27.25 15.800781 27.21875 C 15.988281 27.046875 16.175781 26.886719 16.378906 26.738281 Z M 16.378906 26.738281 "/>
<path style=" stroke:none;fill-rule:nonzero;fill:rgb(3.529412%,3.137255%,4.313726%);fill-opacity:1;" d="M 26.601562 16.660156 C 26.625 16.730469 26.644531 16.796875 26.671875 16.871094 C 26.714844 16.871094 26.761719 16.871094 26.808594 16.871094 C 26.75 17.203125 26.75 17.203125 26.671875 17.359375 C 26.492188 17.402344 26.492188 17.402344 26.320312 17.429688 C 26.351562 17.316406 26.386719 17.199219 26.421875 17.085938 C 26.4375 17.019531 26.457031 16.957031 26.476562 16.890625 C 26.53125 16.730469 26.53125 16.730469 26.601562 16.660156 Z M 26.601562 16.660156 "/>
<path style=" stroke:none;fill-rule:nonzero;fill:rgb(7.450981%,7.450981%,8.235294%);fill-opacity:1;" d="M 12.601562 20.300781 C 12.625 20.300781 12.644531 20.300781 12.671875 20.300781 C 12.671875 20.4375 12.671875 20.578125 12.671875 20.71875 C 12.714844 20.71875 12.761719 20.71875 12.808594 20.71875 C 12.796875 20.914062 12.796875 20.914062 12.738281 21.140625 C 12.625 21.230469 12.507812 21.324219 12.390625 21.421875 C 12.460938 21.050781 12.527344 20.679688 12.601562 20.300781 Z M 12.601562 20.300781 "/>
<path style=" stroke:none;fill-rule:nonzero;fill:rgb(90.980393%,41.960785%,16.862746%);fill-opacity:1;" d="M 22.820312 14.769531 C 22.960938 14.910156 22.960938 14.910156 22.976562 15.15625 C 22.960938 15.398438 22.960938 15.398438 22.820312 15.539062 C 22.769531 15.703125 22.722656 15.867188 22.679688 16.03125 C 22.574219 15.75 22.644531 15.527344 22.710938 15.242188 C 22.730469 15.152344 22.75 15.066406 22.773438 14.972656 C 22.789062 14.90625 22.804688 14.839844 22.820312 14.769531 Z M 22.820312 14.769531 "/>
<path style=" stroke:none;fill-rule:nonzero;fill:rgb(8.627451%,8.235294%,9.019608%);fill-opacity:1;" d="M 26.320312 14.210938 C 26.34375 14.28125 26.367188 14.347656 26.390625 14.421875 C 26.460938 14.441406 26.527344 14.464844 26.601562 14.488281 C 26.4375 14.675781 26.277344 14.859375 26.109375 15.050781 C 26.039062 14.910156 26.039062 14.910156 26.09375 14.742188 C 26.121094 14.679688 26.148438 14.617188 26.175781 14.550781 C 26.203125 14.488281 26.230469 14.425781 26.257812 14.359375 C 26.277344 14.308594 26.296875 14.261719 26.320312 14.210938 Z M 26.320312 14.210938 "/>
<path style=" stroke:none;fill-rule:nonzero;fill:rgb(5.882353%,5.098039%,6.27451%);fill-opacity:1;" d="M 21.070312 11.691406 C 21.164062 11.691406 21.253906 11.691406 21.351562 11.691406 C 21.351562 11.898438 21.351562 12.105469 21.351562 12.320312 C 21.28125 12.296875 21.210938 12.273438 21.140625 12.25 C 21.050781 12.042969 21.050781 12.042969 21 11.828125 C 21.023438 11.785156 21.046875 11.738281 21.070312 11.691406 Z M 21.070312 11.691406 "/>
<path style=" stroke:none;fill-rule:nonzero;fill:rgb(81.568629%,42.745098%,24.313726%);fill-opacity:1;" d="M 20.089844 6.230469 C 19.875 6.414062 19.828125 6.441406 19.53125 6.441406 C 19.554688 6.53125 19.578125 6.625 19.601562 6.71875 C 19.484375 6.695312 19.367188 6.671875 19.25 6.648438 C 19.25 6.441406 19.25 6.441406 19.355469 6.320312 C 19.609375 6.1875 19.804688 6.214844 20.089844 6.230469 Z M 20.089844 6.230469 "/>
<path style=" stroke:none;fill-rule:nonzero;fill:rgb(73.333335%,52.156866%,36.470589%);fill-opacity:1;" d="M 19.390625 22.46875 C 19.53125 22.679688 19.53125 22.679688 19.53125 22.890625 C 19.390625 23.101562 19.390625 23.101562 19.242188 23.148438 C 19.199219 23.15625 19.15625 23.164062 19.109375 23.171875 C 19.144531 22.875 19.191406 22.695312 19.390625 22.46875 Z M 19.390625 22.46875 "/>
<path style=" stroke:none;fill-rule:nonzero;fill:rgb(79.607844%,45.09804%,27.843139%);fill-opacity:1;" d="M 23.800781 16.378906 C 23.878906 16.617188 23.859375 16.675781 23.777344 16.90625 C 23.757812 16.960938 23.742188 17.011719 23.722656 17.070312 C 23.660156 17.21875 23.660156 17.21875 23.519531 17.429688 C 23.472656 17.429688 23.425781 17.429688 23.378906 17.429688 C 23.421875 17.148438 23.511719 16.96875 23.660156 16.730469 C 23.707031 16.613281 23.757812 16.496094 23.800781 16.378906 Z M 23.800781 16.378906 "/>
<path style=" stroke:none;fill-rule:nonzero;fill:rgb(3.529412%,2.352941%,3.921569%);fill-opacity:1;" d="M 26.738281 8.890625 C 26.980469 9.078125 27.039062 9.296875 27.089844 9.589844 C 26.992188 9.761719 26.992188 9.761719 26.878906 9.871094 C 26.875 9.804688 26.875 9.804688 26.871094 9.734375 C 26.863281 9.675781 26.859375 9.617188 26.855469 9.558594 C 26.847656 9.5 26.84375 9.445312 26.839844 9.382812 C 26.828125 9.335938 26.820312 9.289062 26.808594 9.238281 C 26.765625 9.21875 26.71875 9.195312 26.671875 9.171875 C 26.691406 9.078125 26.714844 8.984375 26.738281 8.890625 Z M 26.738281 8.890625 "/>
<path style=" stroke:none;fill-rule:nonzero;fill:rgb(78.039217%,45.490196%,27.058825%);fill-opacity:1;" d="M 23.03125 17.921875 C 23.078125 17.921875 23.121094 17.921875 23.171875 17.921875 C 23.054688 18.253906 22.871094 18.535156 22.679688 18.828125 C 22.65625 18.738281 22.632812 18.644531 22.609375 18.550781 C 22.65625 18.550781 22.703125 18.550781 22.75 18.550781 C 22.773438 18.433594 22.796875 18.320312 22.820312 18.199219 C 22.890625 18.175781 22.957031 18.152344 23.03125 18.128906 C 23.03125 18.0625 23.03125 17.992188 23.03125 17.921875 Z M 23.03125 17.921875 "/>
<path style=" stroke:none;fill-rule:nonzero;fill:rgb(17.647059%,16.470589%,18.431373%);fill-opacity:1;" d="M 13.789062 28.839844 C 13.882812 28.886719 13.976562 28.933594 14.070312 28.980469 C 13.890625 29.121094 13.722656 29.246094 13.511719 29.328125 C 13.441406 29.308594 13.371094 29.285156 13.300781 29.261719 C 13.460938 29.121094 13.625 28.984375 13.789062 28.839844 Z M 13.789062 28.839844 "/>
<path style=" stroke:none;fill-rule:nonzero;fill:rgb(6.666667%,5.490196%,7.058824%);fill-opacity:1;" d="M 9.171875 14.210938 C 9.21875 14.328125 9.21875 14.328125 9.238281 14.488281 C 9.171875 14.609375 9.101562 14.726562 9.03125 14.839844 C 9.03125 14.910156 9.03125 14.980469 9.03125 15.050781 C 8.960938 15.074219 8.890625 15.097656 8.820312 15.121094 C 8.855469 14.75 8.976562 14.519531 9.171875 14.210938 Z M 9.171875 14.210938 "/>
<path style=" stroke:none;fill-rule:nonzero;fill:rgb(10.980392%,10.196079%,12.54902%);fill-opacity:1;" d="M 11.148438 13.15625 C 11.210938 13.15625 11.273438 13.15625 11.335938 13.15625 C 11.382812 13.160156 11.429688 13.160156 11.480469 13.160156 C 11.480469 13.183594 11.480469 13.207031 11.480469 13.230469 C 10.671875 13.390625 10.671875 13.390625 10.289062 13.371094 C 10.585938 13.171875 10.796875 13.152344 11.148438 13.15625 Z M 11.148438 13.15625 "/>
<path style=" stroke:none;fill-rule:nonzero;fill:rgb(9.803922%,8.627451%,9.803922%);fill-opacity:1;" d="M 27.089844 9.941406 C 27.136719 9.941406 27.183594 9.941406 27.230469 9.941406 C 27.230469 9.984375 27.230469 10.03125 27.230469 10.078125 C 27.277344 10.078125 27.324219 10.078125 27.371094 10.078125 C 27.394531 10.242188 27.417969 10.402344 27.441406 10.570312 C 27.371094 10.523438 27.300781 10.476562 27.230469 10.429688 C 27.183594 10.429688 27.136719 10.429688 27.089844 10.429688 C 27.015625 10.210938 27.023438 10.152344 27.089844 9.941406 Z M 27.089844 9.941406 "/>
<path style=" stroke:none;fill-rule:nonzero;fill:rgb(88.235295%,41.176471%,20%);fill-opacity:1;" d="M 20.578125 7.070312 C 20.753906 7.105469 20.753906 7.105469 20.929688 7.140625 C 20.929688 7.1875 20.929688 7.230469 20.929688 7.28125 C 20.996094 7.300781 21.0625 7.320312 21.132812 7.339844 C 21.351562 7.421875 21.351562 7.421875 21.488281 7.558594 C 21.152344 7.519531 20.886719 7.421875 20.578125 7.28125 C 20.578125 7.210938 20.578125 7.140625 20.578125 7.070312 Z M 20.578125 7.070312 "/>
<path style=" stroke:none;fill-rule:nonzero;fill:rgb(12.54902%,12.156863%,14.117648%);fill-opacity:1;" d="M 18.199219 21.699219 C 18.476562 21.699219 18.753906 21.699219 19.039062 21.699219 C 19.039062 21.792969 19.039062 21.886719 19.039062 21.980469 C 19.015625 21.933594 18.992188 21.886719 18.96875 21.839844 C 18.761719 21.847656 18.761719 21.847656 18.554688 21.855469 C 18.410156 21.839844 18.410156 21.839844 18.199219 21.699219 Z M 18.199219 21.699219 "/>
<path style=" stroke:none;fill-rule:nonzero;fill:rgb(10.980392%,10.980392%,12.156863%);fill-opacity:1;" d="M 19.601562 13.160156 C 20.0625 13.160156 20.523438 13.160156 21 13.160156 C 21.023438 13.230469 21.046875 13.296875 21.070312 13.371094 C 21 13.347656 20.929688 13.324219 20.859375 13.300781 C 20.761719 13.289062 20.664062 13.28125 20.5625 13.277344 C 20.480469 13.273438 20.480469 13.273438 20.394531 13.269531 C 20.335938 13.265625 20.277344 13.261719 20.21875 13.261719 C 20.15625 13.257812 20.097656 13.253906 20.039062 13.25 C 19.890625 13.242188 19.746094 13.238281 19.601562 13.230469 C 19.601562 13.207031 19.601562 13.183594 19.601562 13.160156 Z M 19.601562 13.160156 "/>
<path style=" stroke:none;fill-rule:nonzero;fill:rgb(87.450981%,42.745098%,18.82353%);fill-opacity:1;" d="M 21.210938 19.460938 C 21.234375 19.460938 21.257812 19.460938 21.28125 19.460938 C 21.28125 19.621094 21.28125 19.785156 21.28125 19.949219 C 21.210938 19.972656 21.140625 19.996094 21.070312 20.019531 C 21.019531 20.160156 21.019531 20.160156 21 20.300781 C 20.914062 20.046875 20.953125 19.996094 21.066406 19.761719 C 21.105469 19.675781 21.105469 19.675781 21.144531 19.589844 C 21.167969 19.546875 21.1875 19.503906 21.210938 19.460938 Z M 21.210938 19.460938 "/>
<path style=" stroke:none;fill-rule:nonzero;fill:rgb(81.176472%,47.843137%,31.37255%);fill-opacity:1;" d="M 22.609375 14.769531 C 22.632812 14.769531 22.65625 14.769531 22.679688 14.769531 C 22.65625 15.09375 22.632812 15.417969 22.609375 15.75 C 22.539062 15.773438 22.472656 15.796875 22.398438 15.820312 C 22.46875 15.472656 22.539062 15.128906 22.609375 14.769531 Z M 22.609375 14.769531 "/>
<path style=" stroke:none;fill-rule:nonzero;fill:rgb(7.450981%,6.666667%,7.843138%);fill-opacity:1;" d="M 25.898438 15.261719 C 25.992188 15.328125 26.085938 15.398438 26.179688 15.46875 C 26.109375 15.679688 26.109375 15.679688 25.894531 15.796875 C 25.828125 15.828125 25.761719 15.859375 25.691406 15.890625 C 25.757812 15.683594 25.828125 15.472656 25.898438 15.261719 Z M 25.898438 15.261719 "/>
<path style=" stroke:none;fill-rule:nonzero;fill:rgb(80.000001%,45.490196%,27.058825%);fill-opacity:1;" d="M 19.808594 21.980469 C 19.902344 21.980469 19.996094 21.980469 20.089844 21.980469 C 20.003906 22.238281 19.867188 22.355469 19.671875 22.539062 C 19.648438 22.492188 19.625 22.449219 19.601562 22.398438 C 19.664062 22.257812 19.734375 22.117188 19.808594 21.980469 Z M 19.808594 21.980469 "/>
<path style=" stroke:none;fill-rule:nonzero;fill:rgb(9.411765%,8.627451%,10.588235%);fill-opacity:1;" d="M 10.011719 13.300781 C 10.101562 13.324219 10.195312 13.347656 10.289062 13.371094 C 10.289062 13.417969 10.289062 13.460938 10.289062 13.511719 C 10.214844 13.542969 10.140625 13.574219 10.0625 13.605469 C 9.878906 13.683594 9.699219 13.765625 9.519531 13.859375 C 9.632812 13.71875 9.75 13.578125 9.871094 13.441406 C 9.917969 13.441406 9.960938 13.441406 10.011719 13.441406 C 10.011719 13.394531 10.011719 13.347656 10.011719 13.300781 Z M 10.011719 13.300781 "/>
<path style=" stroke:none;fill-rule:nonzero;fill:rgb(7.843138%,7.843138%,8.627451%);fill-opacity:1;" d="M 14.558594 10.21875 C 14.605469 10.21875 14.652344 10.21875 14.699219 10.21875 C 14.699219 10.265625 14.699219 10.3125 14.699219 10.359375 C 14.742188 10.335938 14.78125 10.308594 14.824219 10.28125 C 14.902344 10.25 14.902344 10.25 14.980469 10.21875 C 15.074219 10.265625 15.164062 10.3125 15.261719 10.359375 C 15.007812 10.40625 14.75 10.453125 14.488281 10.5 C 14.488281 10.289062 14.488281 10.289062 14.558594 10.21875 Z M 14.558594 10.21875 "/>
<path style=" stroke:none;fill-rule:nonzero;fill:rgb(2.745098%,1.960784%,3.137255%);fill-opacity:1;" d="M 14.910156 28.070312 C 14.910156 28.28125 14.910156 28.28125 14.910156 28.28125 Z M 14.488281 28.28125 C 14.605469 28.28125 14.722656 28.28125 14.839844 28.28125 C 14.839844 28.347656 14.839844 28.417969 14.839844 28.488281 C 14.792969 28.488281 14.746094 28.488281 14.699219 28.488281 C 14.675781 28.535156 14.652344 28.582031 14.628906 28.628906 C 14.582031 28.628906 14.539062 28.628906 14.488281 28.628906 C 14.488281 28.515625 14.488281 28.398438 14.488281 28.28125 Z M 14.488281 28.28125 "/>
<path style=" stroke:none;fill-rule:nonzero;fill:rgb(2.745098%,2.352941%,3.137255%);fill-opacity:1;" d="M 12.738281 10.921875 C 12.921875 10.945312 12.921875 10.945312 13.089844 10.988281 C 13.066406 11.058594 13.042969 11.128906 13.019531 11.199219 C 12.882812 11.222656 12.742188 11.246094 12.601562 11.269531 C 12.601562 11.058594 12.601562 11.058594 12.738281 10.921875 Z M 12.738281 10.921875 "/>
<path style=" stroke:none;fill-rule:nonzero;fill:rgb(87.843138%,40.784314%,27.058825%);fill-opacity:1;" d="M 25.269531 10.5 C 25.339844 10.523438 25.410156 10.546875 25.480469 10.570312 C 25.480469 10.730469 25.480469 10.894531 25.480469 11.058594 C 25.410156 11.035156 25.339844 11.015625 25.269531 10.988281 C 25.269531 10.828125 25.269531 10.667969 25.269531 10.5 Z M 25.269531 10.5 "/>
<path style=" stroke:none;fill-rule:nonzero;fill:rgb(15.686275%,14.901961%,15.294118%);fill-opacity:1;" d="M 8.398438 16.171875 C 8.421875 16.171875 8.445312 16.171875 8.46875 16.171875 C 8.476562 16.292969 8.480469 16.417969 8.484375 16.542969 C 8.488281 16.644531 8.488281 16.644531 8.492188 16.75 C 8.46875 16.941406 8.46875 16.941406 8.363281 17.070312 C 8.328125 17.097656 8.296875 17.121094 8.261719 17.148438 C 8.269531 17.039062 8.28125 16.929688 8.289062 16.816406 C 8.296875 16.753906 8.300781 16.695312 8.308594 16.628906 C 8.328125 16.472656 8.355469 16.324219 8.398438 16.171875 Z M 8.398438 16.171875 "/>
<path style=" stroke:none;fill-rule:nonzero;fill:rgb(9.803922%,9.803922%,10.196079%);fill-opacity:1;" d="M 20.71875 14.488281 C 20.832031 14.769531 20.742188 14.984375 20.648438 15.261719 C 20.550781 15.074219 20.484375 14.90625 20.441406 14.699219 C 20.507812 14.675781 20.578125 14.652344 20.648438 14.628906 C 20.671875 14.582031 20.695312 14.539062 20.71875 14.488281 Z M 20.71875 14.488281 "/>
<path style=" stroke:none;fill-rule:nonzero;fill:rgb(9.411765%,9.019608%,9.803922%);fill-opacity:1;" d="M 17.710938 25.550781 C 17.757812 25.574219 17.800781 25.597656 17.851562 25.621094 C 17.746094 25.722656 17.746094 25.722656 17.640625 25.828125 C 17.664062 25.875 17.6875 25.921875 17.710938 25.96875 C 17.570312 26.039062 17.570312 26.039062 17.429688 26.109375 C 17.382812 26.0625 17.335938 26.019531 17.289062 25.96875 C 17.429688 25.832031 17.566406 25.691406 17.710938 25.550781 Z M 17.710938 25.550781 "/>
<path style=" stroke:none;fill-rule:nonzero;fill:rgb(69.411767%,53.725493%,42.352942%);fill-opacity:1;" d="M 19.039062 22.960938 C 19.132812 23.03125 19.226562 23.097656 19.320312 23.171875 C 19.203125 23.261719 19.089844 23.355469 18.96875 23.449219 C 18.921875 23.425781 18.878906 23.402344 18.828125 23.378906 C 18.898438 23.238281 18.96875 23.101562 19.039062 22.960938 Z M 19.039062 22.960938 "/>
<path style=" stroke:none;fill-rule:nonzero;fill:rgb(5.098039%,4.705882%,6.27451%);fill-opacity:1;" d="M 14.839844 22.398438 C 14.984375 22.5625 14.984375 22.5625 15.121094 22.75 C 15.097656 22.820312 15.074219 22.886719 15.050781 22.960938 C 14.980469 22.960938 14.910156 22.960938 14.839844 22.960938 C 14.761719 22.730469 14.785156 22.628906 14.839844 22.398438 Z M 14.839844 22.398438 "/>
<path style=" stroke:none;fill-rule:nonzero;fill:rgb(82.745099%,44.705883%,23.921569%);fill-opacity:1;" d="M 22.398438 18.828125 C 22.46875 18.828125 22.539062 18.828125 22.609375 18.828125 C 22.5625 19 22.5625 19 22.46875 19.179688 C 22.285156 19.238281 22.285156 19.238281 22.121094 19.25 C 22.246094 19.039062 22.246094 19.039062 22.398438 18.828125 Z M 22.398438 18.828125 "/>
<path style=" stroke:none;fill-rule:nonzero;fill:rgb(11.372549%,10.980392%,12.54902%);fill-opacity:1;" d="M 13.300781 10.011719 C 13.347656 10.03125 13.390625 10.054688 13.441406 10.078125 C 13.417969 10.148438 13.394531 10.21875 13.371094 10.289062 C 13.324219 10.289062 13.277344 10.289062 13.230469 10.289062 C 13.207031 10.335938 13.183594 10.382812 13.160156 10.429688 C 12.980469 10.472656 12.980469 10.472656 12.808594 10.5 C 12.972656 10.335938 13.136719 10.171875 13.300781 10.011719 Z M 13.300781 10.011719 "/>
<path style=" stroke:none;fill-rule:nonzero;fill:rgb(26.274511%,23.921569%,25.882354%);fill-opacity:1;" d="M 26.390625 7.980469 C 26.699219 8.339844 26.699219 8.339844 26.738281 8.609375 C 26.671875 8.632812 26.601562 8.65625 26.53125 8.679688 C 26.4375 8.425781 26.390625 8.253906 26.390625 7.980469 Z M 26.390625 7.980469 "/>
<path style=" stroke:none;fill-rule:nonzero;fill:rgb(11.764706%,10.980392%,12.54902%);fill-opacity:1;" d="M 15.191406 27.71875 C 15.214844 27.789062 15.234375 27.859375 15.261719 27.929688 C 15.203125 27.960938 15.148438 27.992188 15.089844 28.027344 C 14.902344 28.121094 14.902344 28.121094 14.839844 28.28125 C 14.769531 28.257812 14.703125 28.234375 14.628906 28.210938 C 14.816406 28.046875 15 27.886719 15.191406 27.71875 Z M 15.191406 27.71875 "/>
<path style=" stroke:none;fill-rule:nonzero;fill:rgb(9.803922%,9.411765%,10.196079%);fill-opacity:1;" d="M 24.988281 17.078125 C 25.09375 17.265625 25.128906 17.351562 25.128906 17.570312 C 25.015625 17.546875 24.898438 17.523438 24.78125 17.5 C 24.847656 17.363281 24.917969 17.222656 24.988281 17.078125 Z M 24.988281 17.078125 "/>
<path style=" stroke:none;fill-rule:nonzero;fill:rgb(7.058824%,6.666667%,7.450981%);fill-opacity:1;" d="M 16.941406 8.121094 C 16.984375 8.144531 17.03125 8.167969 17.078125 8.191406 C 16.988281 8.214844 16.894531 8.234375 16.800781 8.261719 C 16.800781 8.328125 16.800781 8.398438 16.800781 8.46875 C 16.683594 8.492188 16.570312 8.515625 16.449219 8.539062 C 16.519531 8.328125 16.519531 8.328125 16.726562 8.207031 C 16.796875 8.179688 16.867188 8.148438 16.941406 8.121094 Z M 16.941406 8.121094 "/>
<path style=" stroke:none;fill-rule:nonzero;fill:rgb(80.000001%,44.313726%,25.882354%);fill-opacity:1;" d="M 21.769531 8.191406 C 21.816406 8.191406 21.863281 8.191406 21.910156 8.191406 C 21.910156 8.234375 21.910156 8.28125 21.910156 8.328125 C 21.980469 8.351562 22.046875 8.375 22.121094 8.398438 C 22.144531 8.539062 22.167969 8.675781 22.191406 8.820312 C 22.03125 8.667969 21.894531 8.511719 21.769531 8.328125 C 21.769531 8.285156 21.769531 8.238281 21.769531 8.191406 Z M 21.769531 8.191406 "/>
<path style=" stroke:none;fill-rule:nonzero;fill:rgb(90.588236%,42.352942%,16.078432%);fill-opacity:1;" d="M 20.300781 6.71875 C 20.414062 6.742188 20.53125 6.765625 20.648438 6.789062 C 20.671875 6.882812 20.695312 6.976562 20.71875 7.070312 C 20.558594 7.023438 20.398438 6.976562 20.230469 6.929688 C 20.253906 6.859375 20.277344 6.792969 20.300781 6.71875 Z M 20.300781 6.71875 "/>
<path style=" stroke:none;fill-rule:nonzero;fill:rgb(77.254903%,43.137255%,25.098041%);fill-opacity:1;" d="M 20.300781 21 C 20.347656 21.023438 20.390625 21.046875 20.441406 21.070312 C 20.351562 21.34375 20.265625 21.476562 20.019531 21.628906 C 20.105469 21.414062 20.195312 21.207031 20.300781 21 Z M 20.300781 21 "/>
<path style=" stroke:none;fill-rule:nonzero;fill:rgb(7.843138%,7.450981%,8.235294%);fill-opacity:1;" d="M 24.359375 20.71875 C 24.429688 20.765625 24.5 20.8125 24.570312 20.859375 C 24.453125 20.976562 24.339844 21.089844 24.21875 21.210938 C 24.21875 21.070312 24.21875 20.933594 24.21875 20.789062 C 24.265625 20.765625 24.3125 20.742188 24.359375 20.71875 Z M 24.359375 20.71875 "/>
<path style=" stroke:none;fill-rule:nonzero;fill:rgb(10.980392%,10.588235%,12.54902%);fill-opacity:1;" d="M 16.941406 17.429688 C 16.964844 17.523438 16.984375 17.613281 17.011719 17.710938 C 17.054688 17.734375 17.101562 17.757812 17.148438 17.78125 C 17.125 17.847656 17.105469 17.917969 17.078125 17.988281 C 17.011719 18.011719 16.941406 18.035156 16.871094 18.058594 C 16.894531 17.851562 16.917969 17.644531 16.941406 17.429688 Z M 16.941406 17.429688 "/>
<path style=" stroke:none;fill-rule:nonzero;fill:rgb(5.490196%,5.490196%,5.490196%);fill-opacity:1;" d="M 17.148438 16.449219 C 17.171875 16.449219 17.195312 16.449219 17.21875 16.449219 C 17.242188 16.65625 17.265625 16.867188 17.289062 17.078125 C 17.21875 17.078125 17.152344 17.078125 17.078125 17.078125 C 17.101562 16.871094 17.125 16.664062 17.148438 16.449219 Z M 17.148438 16.449219 "/>
<path style=" stroke:none;fill-rule:nonzero;fill:rgb(10.196079%,9.803922%,10.588235%);fill-opacity:1;" d="M 21.070312 10.148438 C 21.25 10.417969 21.25 10.601562 21.28125 10.921875 C 21.261719 10.878906 21.242188 10.839844 21.222656 10.796875 C 21.140625 10.636719 21.042969 10.5 20.929688 10.359375 C 20.976562 10.289062 21.023438 10.222656 21.070312 10.148438 Z M 21.070312 10.148438 "/>
<path style=" stroke:none;fill-rule:nonzero;fill:rgb(89.803922%,42.745098%,18.431373%);fill-opacity:1;" d="M 22.609375 18.269531 C 22.679688 18.484375 22.679688 18.617188 22.609375 18.828125 C 22.539062 18.828125 22.472656 18.828125 22.398438 18.828125 C 22.53125 18.425781 22.53125 18.425781 22.609375 18.269531 Z M 22.609375 18.269531 "/>
<path style=" stroke:none;fill-rule:nonzero;fill:rgb(8.627451%,7.450981%,8.627451%);fill-opacity:1;" d="M 26.601562 16.660156 C 26.625 16.730469 26.644531 16.796875 26.671875 16.871094 C 26.714844 16.871094 26.761719 16.871094 26.808594 16.871094 C 26.785156 16.984375 26.765625 17.101562 26.738281 17.21875 C 26.628906 17.097656 26.628906 17.097656 26.53125 16.941406 C 26.550781 16.78125 26.550781 16.78125 26.601562 16.660156 Z M 26.601562 16.660156 "/>
<path style=" stroke:none;fill-rule:nonzero;fill:rgb(18.82353%,16.470589%,20%);fill-opacity:1;" d="M 10.359375 12.808594 C 10.40625 12.878906 10.453125 12.949219 10.5 13.019531 C 10.382812 13.113281 10.269531 13.203125 10.148438 13.300781 C 10.148438 13.054688 10.207031 12.992188 10.359375 12.808594 Z M 10.359375 12.808594 "/>
<path style=" stroke:none;fill-rule:nonzero;fill:rgb(8.235294%,7.843138%,8.627451%);fill-opacity:1;" d="M 14.910156 8.960938 C 14.957031 8.984375 15.003906 9.007812 15.050781 9.03125 C 14.933594 9.144531 14.820312 9.261719 14.699219 9.378906 C 14.628906 9.332031 14.5625 9.289062 14.488281 9.238281 C 14.628906 9.148438 14.765625 9.054688 14.910156 8.960938 Z M 14.910156 8.960938 "/>
<path style=" stroke:none;fill-rule:nonzero;fill:rgb(85.490197%,42.352942%,20.392157%);fill-opacity:1;" d="M 23.378906 6.71875 C 23.652344 6.808594 23.785156 6.894531 23.941406 7.140625 C 23.707031 7.097656 23.558594 7.019531 23.378906 6.859375 C 23.378906 6.8125 23.378906 6.769531 23.378906 6.71875 Z M 23.378906 6.71875 "/>
<path style=" stroke:none;fill-rule:nonzero;fill:rgb(88.627452%,41.568628%,18.039216%);fill-opacity:1;" d="M 19.53125 6.371094 C 19.738281 6.441406 19.738281 6.441406 19.824219 6.585938 C 19.84375 6.628906 19.859375 6.675781 19.878906 6.71875 C 19.765625 6.695312 19.648438 6.671875 19.53125 6.648438 C 19.53125 6.558594 19.53125 6.464844 19.53125 6.371094 Z M 19.53125 6.371094 "/>
</g>
</svg>
