<svg width="1920" height="1000" viewBox="0 0 1920 1000" fill="none" xmlns="http://www.w3.org/2000/svg">
<path d="M467.163 441.755L467.283 443.751L467.163 441.755ZM1921.85 2.75149C1922.27 1.72786 1921.78 0.561592 1920.75 0.146555C1919.73 -0.268483 1918.56 0.224878 1918.15 1.24851L1921.85 2.75149ZM1.98296 1002.26C13.7 913.079 51.0762 778.08 125.067 663.055C199.042 548.055 309.458 453.231 467.283 443.751L467.043 439.759C307.52 449.34 196.1 545.235 121.703 660.891C47.3233 776.521 9.79236 912.115 -1.98296 1001.74L1.98296 1002.26ZM467.283 443.751C566.322 437.803 691.011 445.664 826.467 451.241C961.848 456.815 1107.87 460.098 1249.3 444.935C1532.16 414.607 1797.11 310.413 1921.85 2.75149L1918.15 1.24851C1794.21 306.93 1531.08 410.7 1248.87 440.958C1107.76 456.087 961.99 452.818 826.632 447.245C691.349 441.675 566.347 433.794 467.043 439.759L467.283 443.751Z" fill="url(#paint0_linear_76_36)" fill-opacity="0.35"/>
<defs>
<linearGradient id="paint0_linear_76_36" x1="1030" y1="2" x2="1041.51" y2="1001.99" gradientUnits="userSpaceOnUse">
<stop stop-color="#FBAAAB" stop-opacity="0.5"/>
<stop offset="1" stop-color="#FBAAAB" stop-opacity="0.05"/>
</linearGradient>
</defs>
</svg>
